# WaveFront *.obj file (generated by Autodesk ATF)

mtllib 0593227f-b4ca-4070-b8a7-f848e2c5a366.mtl

g Body1

v 4.690416 -10.500000 20.000000
v 7.193672 -8.972240 20.000000
v 9.229117 -6.861006 20.000000
v 10.664383 -4.303595 20.000000
v 11.406135 -1.466317 20.000000
v 11.406135 1.466317 20.000000
v 10.664383 4.303595 20.000000
v 9.229117 6.861006 20.000000
v 7.193672 8.972240 20.000000
v 4.690416 10.500000 20.000000
v 16.400000 10.500000 20.000000
v 16.400000 -10.500000 20.000000
v -4.690416 10.500000 20.000000
v -7.193672 8.972240 20.000000
v -9.229117 6.861006 20.000000
v -10.664383 4.303595 20.000000
v -11.406135 1.466317 20.000000
v -11.406135 -1.466317 20.000000
v -10.664383 -4.303595 20.000000
v -9.229117 -6.861006 20.000000
v -7.193672 -8.972240 20.000000
v -4.690416 -10.500000 20.000000
v -16.400000 -10.500000 20.000000
v -16.400000 10.500000 20.000000
v -14.400000 -10.500000 115.300000
v 14.400000 -10.500000 115.300000
v 14.400000 -10.500000 22.000000
v -14.400000 -10.500000 22.000000
v 16.400000 -10.500000 117.300000
v -16.400000 -10.500000 117.300000
v 14.400000 10.500000 115.300000
v 14.400000 10.500000 22.000000
v -14.400000 10.500000 22.000000
v -14.400000 10.500000 115.300000
v -16.400000 10.500000 117.300000
v 16.400000 10.500000 117.300000
v -2.397916 -11.247222 20.000000
v 0.000000 -11.500000 20.000000
v 2.397916 -11.247222 20.000000
v 2.397916 11.247222 20.000000
v 0.000000 11.500000 20.000000
v -2.397916 11.247222 20.000000
v -11.500000 -0.000000 14.000000
v -11.108147 -2.976419 14.000000
v -9.959292 -5.750000 14.000000
v -8.131728 -8.131728 14.000000
v -5.750000 -9.959292 14.000000
v -2.976419 -11.108147 14.000000
v 0.000000 -11.500000 14.000000
v 2.976419 -11.108147 14.000000
v 5.750000 -9.959292 14.000000
v 8.131728 -8.131728 14.000000
v 9.959292 -5.750000 14.000000
v 11.108147 -2.976419 14.000000
v 11.500000 0.000000 14.000000
v 11.108147 2.976419 14.000000
v 9.959292 5.750000 14.000000
v 8.131728 8.131728 14.000000
v 5.750000 9.959292 14.000000
v 2.976419 11.108147 14.000000
v 0.000000 11.500000 14.000000
v -2.976419 11.108147 14.000000
v -5.750000 9.959292 14.000000
v -8.131728 8.131728 14.000000
v -9.959292 5.750000 14.000000
v -11.108147 2.976419 14.000000
vt 1.170958 -1.050000 0.000000
vt 0.920633 -0.897224 0.000000
vt 0.000000 -1.050000 0.000000
vt 0.717088 -0.686101 0.000000
vt 0.573562 -0.430360 0.000000
vt 0.499387 -0.146632 0.000000
vt 0.499387 0.146632 0.000000
vt -0.000000 1.050000 0.000000
vt 0.573562 0.430360 0.000000
vt 0.717088 0.686101 0.000000
vt 0.920633 0.897224 0.000000
vt 1.170958 1.050000 0.000000
vt 2.109042 1.050000 0.000000
vt 2.359367 0.897224 0.000000
vt 3.280000 1.050000 0.000000
vt 2.562912 0.686101 0.000000
vt 2.706438 0.430360 0.000000
vt 2.780613 0.146632 0.000000
vt 3.280000 -1.050000 0.000000
vt 2.780613 -0.146632 0.000000
vt 2.706438 -0.430360 0.000000
vt 2.562912 -0.686101 0.000000
vt 2.359367 -0.897224 0.000000
vt 2.109042 -1.050000 0.000000
vt -4.665000 1.440000 0.000000
vt -4.865000 -1.640000 0.000000
vt -4.665000 -1.440000 0.000000
vt 4.865000 -1.640000 0.000000
vt 4.665000 -1.440000 0.000000
vt 4.865000 -0.469042 0.000000
vt 4.865000 0.469042 0.000000
vt -4.865000 1.640000 0.000000
vt 4.665000 1.440000 0.000000
vt 4.865000 1.640000 0.000000
vt 9.330000 1.050000 0.000000
vt 0.000000 1.050000 0.000000
vt 9.330000 -1.050000 0.000000
vt 0.000000 -1.050000 0.000000
vt 2.880000 1.050000 0.000000
vt 0.000000 1.050000 0.000000
vt 2.880000 -1.050000 0.000000
vt 0.000000 -1.050000 0.000000
vt 9.330000 1.050000 0.000000
vt 0.000000 1.050000 0.000000
vt 9.330000 -1.050000 0.000000
vt 0.000000 -1.050000 0.000000
vt 2.880000 1.050000 0.000000
vt 0.000000 1.050000 0.000000
vt 2.880000 -1.050000 0.000000
vt 0.000000 -1.050000 0.000000
vt 9.730000 1.050000 0.000000
vt 0.000000 1.050000 0.000000
vt 9.730000 -1.050000 0.000000
vt 0.000000 -1.050000 0.000000
vt 9.730000 1.050000 0.000000
vt -0.000000 1.050000 0.000000
vt 9.730000 -1.050000 0.000000
vt 0.000000 -1.050000 0.000000
vt 3.280000 1.050000 0.000000
vt -0.000000 1.050000 0.000000
vt 3.280000 -1.050000 0.000000
vt -0.000000 -1.050000 0.000000
vt 4.665000 -1.440000 0.000000
vt 4.865000 -1.640000 0.000000
vt 4.665000 1.440000 0.000000
vt 4.865000 1.640000 0.000000
vt -4.865000 1.640000 0.000000
vt -4.665000 -1.440000 0.000000
vt -4.865000 -1.640000 0.000000
vt -4.865000 -0.469042 0.000000
vt -4.865000 0.469042 0.000000
vt -4.665000 1.440000 0.000000
vt 0.469042 -1.050000 0.000000
vt -0.469042 -1.050000 0.000000
vt 0.239792 -1.124722 0.000000
vt -0.239792 -1.124722 0.000000
vt 0.000000 -1.150000 0.000000
vt -0.469042 1.050000 0.000000
vt 0.469042 1.050000 0.000000
vt -0.239792 1.124722 0.000000
vt 0.239792 1.124722 0.000000
vt 0.000000 1.150000 0.000000
vt -0.600000 -2.583608 0.000000
vt -0.000000 -2.408554 0.000000
vt -0.600000 -2.289544 0.000000
vt -0.000000 -2.107485 0.000000
vt -0.600000 -2.047980 0.000000
vt -0.000000 -1.806416 0.000000
vt -0.600000 -1.806416 0.000000
vt -0.600000 -1.564852 0.000000
vt -0.000000 -1.505346 0.000000
vt -0.600000 -1.323288 0.000000
vt -0.000000 -1.204277 0.000000
vt -0.600000 -1.029224 0.000000
vt -0.000000 -0.903208 0.000000
vt -0.600000 -0.735160 0.000000
vt -0.000000 -0.602139 0.000000
vt -0.600000 -0.441096 0.000000
vt -0.000000 -0.301069 0.000000
vt -0.600000 -0.147032 0.000000
vt -0.000000 0.000000 0.000000
vt -0.600000 0.147032 0.000000
vt -0.000000 0.301069 0.000000
vt -0.600000 0.441096 0.000000
vt -0.000000 0.602139 0.000000
vt -0.600000 0.735160 0.000000
vt -0.000000 0.903208 0.000000
vt -0.600000 1.029224 0.000000
vt -0.000000 1.204277 0.000000
vt -0.600000 1.323288 0.000000
vt -0.000000 1.505346 0.000000
vt -0.600000 1.564852 0.000000
vt -0.000000 1.806416 0.000000
vt -0.600000 1.806416 0.000000
vt -0.600000 2.047980 0.000000
vt -0.000000 2.107485 0.000000
vt -0.600000 2.289544 0.000000
vt -0.000000 2.408554 0.000000
vt -0.600000 2.583608 0.000000
vt -0.000000 2.709624 0.000000
vt -0.600000 2.877672 0.000000
vt -0.000000 3.010693 0.000000
vt -0.600000 3.171736 0.000000
vt -0.000000 3.311762 0.000000
vt -0.600000 3.465800 0.000000
vt -0.000000 3.612832 0.000000
vt -0.600000 3.759864 0.000000
vt -0.600000 -3.465800 0.000000
vt -0.000000 -3.612832 0.000000
vt -0.000000 -3.311762 0.000000
vt -0.600000 -3.171736 0.000000
vt -0.000000 -3.010693 0.000000
vt -0.600000 -2.877672 0.000000
vt -0.000000 -2.709624 0.000000
vt 1.110815 0.297642 0.000000
vt -1.110815 0.297642 0.000000
vt 1.150000 -0.000000 0.000000
vt -1.150000 0.000000 0.000000
vt 1.110815 -0.297642 0.000000
vt -1.110815 -0.297642 0.000000
vt 0.995929 -0.575000 0.000000
vt -0.995929 -0.575000 0.000000
vt 0.813173 -0.813173 0.000000
vt -0.813173 -0.813173 0.000000
vt 0.575000 -0.995929 0.000000
vt -0.575000 -0.995929 0.000000
vt 0.297642 -1.110815 0.000000
vt -0.297642 -1.110815 0.000000
vt -0.000000 -1.150000 0.000000
vt -0.995929 0.575000 0.000000
vt 0.995929 0.575000 0.000000
vt -0.813173 0.813173 0.000000
vt 0.813173 0.813173 0.000000
vt -0.575000 0.995929 0.000000
vt 0.575000 0.995929 0.000000
vt -0.297642 1.110815 0.000000
vt 0.297642 1.110815 0.000000
vt -0.000000 1.150000 0.000000
vn 0.000000 0.000000 -0.100000
vn 0.000000 0.000000 -0.100000
vn 0.000000 0.000000 -0.100000
vn 0.000000 0.000000 -0.100000
vn 0.000000 0.000000 -0.100000
vn 0.000000 0.000000 -0.100000
vn 0.000000 0.000000 -0.100000
vn 0.000000 0.000000 -0.100000
vn 0.000000 0.000000 -0.100000
vn 0.000000 0.000000 -0.100000
vn 0.000000 0.000000 -0.100000
vn 0.000000 0.000000 -0.100000
vn 0.000000 0.000000 -0.100000
vn 0.000000 0.000000 -0.100000
vn 0.000000 0.000000 -0.100000
vn 0.000000 0.000000 -0.100000
vn 0.000000 0.000000 -0.100000
vn 0.000000 0.000000 -0.100000
vn 0.000000 0.000000 -0.100000
vn 0.000000 0.000000 -0.100000
vn 0.000000 0.000000 -0.100000
vn 0.000000 0.000000 -0.100000
vn 0.000000 0.000000 -0.100000
vn 0.000000 0.000000 -0.100000
vn 0.000000 -0.100000 0.000000
vn 0.000000 -0.100000 0.000000
vn 0.000000 -0.100000 0.000000
vn 0.000000 -0.100000 0.000000
vn 0.000000 -0.100000 0.000000
vn 0.000000 -0.100000 0.000000
vn 0.000000 -0.100000 0.000000
vn 0.000000 -0.100000 0.000000
vn 0.000000 -0.100000 0.000000
vn 0.000000 -0.100000 0.000000
vn -0.100000 0.000000 0.000000
vn -0.100000 0.000000 0.000000
vn -0.100000 0.000000 0.000000
vn -0.100000 0.000000 0.000000
vn 0.000000 0.000000 0.100000
vn 0.000000 0.000000 0.100000
vn 0.000000 0.000000 0.100000
vn 0.000000 0.000000 0.100000
vn 0.100000 -0.000000 0.000000
vn 0.100000 -0.000000 0.000000
vn 0.100000 -0.000000 0.000000
vn 0.100000 -0.000000 0.000000
vn 0.000000 0.000000 -0.100000
vn 0.000000 0.000000 -0.100000
vn 0.000000 0.000000 -0.100000
vn 0.000000 0.000000 -0.100000
vn -0.100000 0.000000 0.000000
vn -0.100000 0.000000 0.000000
vn -0.100000 0.000000 0.000000
vn -0.100000 0.000000 0.000000
vn 0.100000 0.000000 0.000000
vn 0.100000 0.000000 0.000000
vn 0.100000 0.000000 0.000000
vn 0.100000 0.000000 0.000000
vn 0.000000 -0.000000 0.100000
vn 0.000000 -0.000000 0.100000
vn 0.000000 -0.000000 0.100000
vn 0.000000 -0.000000 0.100000
vn 0.000000 0.100000 0.000000
vn 0.000000 0.100000 0.000000
vn 0.000000 0.100000 0.000000
vn 0.000000 0.100000 0.000000
vn 0.000000 0.100000 0.000000
vn 0.000000 0.100000 0.000000
vn 0.000000 0.100000 0.000000
vn 0.000000 0.100000 0.000000
vn 0.000000 0.100000 0.000000
vn 0.000000 0.100000 0.000000
vn 0.000000 0.000000 0.100000
vn 0.000000 0.000000 0.100000
vn 0.000000 0.000000 0.100000
vn 0.000000 0.000000 0.100000
vn 0.000000 0.000000 0.100000
vn 0.000000 0.000000 0.100000
vn 0.000000 0.000000 0.100000
vn 0.000000 0.000000 0.100000
vn 0.000000 0.000000 0.100000
vn 0.000000 0.000000 0.100000
vn -0.062554 -0.078019 0.000000
vn -0.050000 -0.086603 0.000000
vn -0.040786 -0.091304 0.000000
vn -0.025882 -0.096593 0.000000
vn -0.020851 -0.097802 0.000000
vn 0.000000 -0.100000 0.000000
vn 0.000000 -0.100000 0.000000
vn 0.020851 -0.097802 0.000000
vn 0.025882 -0.096593 0.000000
vn 0.040786 -0.091304 0.000000
vn 0.050000 -0.086603 0.000000
vn 0.062554 -0.078019 0.000000
vn 0.070711 -0.070711 0.000000
vn 0.080253 -0.059661 0.000000
vn 0.086603 -0.050000 0.000000
vn 0.092734 -0.037423 0.000000
vn 0.096593 -0.025882 0.000000
vn 0.099184 -0.012751 0.000000
vn 0.100000 0.000000 0.000000
vn 0.099184 0.012751 0.000000
vn 0.096593 0.025882 0.000000
vn 0.092734 0.037423 0.000000
vn 0.086603 0.050000 0.000000
vn 0.080253 0.059661 0.000000
vn 0.070711 0.070711 0.000000
vn 0.062554 0.078019 0.000000
vn 0.050000 0.086603 0.000000
vn 0.040786 0.091304 0.000000
vn 0.025882 0.096593 0.000000
vn 0.020851 0.097802 0.000000
vn 0.000000 0.100000 0.000000
vn 0.000000 0.100000 0.000000
vn -0.020851 0.097802 -0.000000
vn -0.025882 0.096593 -0.000000
vn -0.040786 0.091304 -0.000000
vn -0.050000 0.086603 -0.000000
vn -0.062554 0.078019 -0.000000
vn -0.070711 0.070711 -0.000000
vn -0.080253 0.059661 -0.000000
vn -0.086603 0.050000 -0.000000
vn -0.092734 0.037423 -0.000000
vn -0.096593 0.025882 -0.000000
vn -0.099184 0.012751 -0.000000
vn -0.100000 0.000000 -0.000000
vn -0.099184 -0.012751 0.000000
vn -0.096593 -0.025882 0.000000
vn -0.092734 -0.037423 0.000000
vn -0.086603 -0.050000 0.000000
vn -0.080253 -0.059661 0.000000
vn -0.070711 -0.070711 0.000000
vn 0.000000 0.000000 -0.100000
vn 0.000000 0.000000 -0.100000
vn 0.000000 0.000000 -0.100000
vn 0.000000 0.000000 -0.100000
vn 0.000000 0.000000 -0.100000
vn 0.000000 0.000000 -0.100000
vn 0.000000 0.000000 -0.100000
vn 0.000000 0.000000 -0.100000
vn 0.000000 0.000000 -0.100000
vn 0.000000 0.000000 -0.100000
vn 0.000000 0.000000 -0.100000
vn 0.000000 0.000000 -0.100000
vn 0.000000 0.000000 -0.100000
vn 0.000000 0.000000 -0.100000
vn 0.000000 0.000000 -0.100000
vn 0.000000 0.000000 -0.100000
vn 0.000000 0.000000 -0.100000
vn 0.000000 0.000000 -0.100000
vn 0.000000 0.000000 -0.100000
vn 0.000000 0.000000 -0.100000
vn 0.000000 0.000000 -0.100000
vn 0.000000 0.000000 -0.100000
vn 0.000000 0.000000 -0.100000
vn 0.000000 0.000000 -0.100000
usemtl Steel_-_Satin
f 1/1/1 2/2/2 12/3/3
f 12/3/3 2/2/2 3/4/4
f 12/3/3 3/4/4 4/5/5
f 4/5/5 5/6/6 12/3/3
f 12/3/3 5/6/6 6/7/7
f 12/3/3 6/7/7 11/8/8
f 11/8/8 6/7/7 7/9/9
f 11/8/8 7/9/9 8/10/10
f 8/10/10 9/11/11 11/8/8
f 11/8/8 9/11/11 10/12/12
f 13/13/13 14/14/14 24/15/15
f 24/15/15 14/14/14 15/16/16
f 24/15/15 15/16/16 16/17/17
f 16/17/17 17/18/18 24/15/15
f 24/15/15 17/18/18 23/19/19
f 23/19/19 17/18/18 18/20/20
f 23/19/19 18/20/20 19/21/21
f 19/21/21 20/22/22 23/19/19
f 23/19/19 20/22/22 21/23/23
f 23/19/19 21/23/23 22/24/24
f 26/25/25 30/26/26 25/27/27
f 25/27/27 30/26/26 23/28/28
f 25/27/27 23/28/28 28/29/29
f 28/29/29 23/28/28 22/30/30
f 28/29/29 22/30/30 1/31/31
f 30/26/26 26/25/25 29/32/32
f 29/32/32 26/25/25 27/33/33
f 29/32/32 27/33/33 12/34/34
f 12/34/34 27/33/33 1/31/31
f 1/31/31 27/33/33 28/29/29
f 31/35/35 32/36/36 26/37/37
f 26/37/37 32/36/36 27/38/38
f 32/39/39 33/40/40 27/41/41
f 27/41/41 33/40/40 28/42/42
f 33/43/43 34/44/44 28/45/45
f 28/45/45 34/44/44 25/46/46
f 34/47/47 31/48/48 25/49/49
f 25/49/49 31/48/48 26/50/50
f 35/51/51 24/52/52 30/53/53
f 30/53/53 24/52/52 23/54/54
f 11/55/55 36/56/56 12/57/57
f 12/57/57 36/56/56 29/58/58
f 36/59/59 35/60/60 29/61/61
f 29/61/61 35/60/60 30/62/62
f 34/63/63 35/64/64 31/65/65
f 31/65/65 35/64/64 36/66/66
f 31/65/65 36/66/66 11/67/67
f 34/63/63 33/68/68 35/64/64
f 35/64/64 33/68/68 24/69/69
f 24/69/69 33/68/68 13/70/70
f 13/70/70 33/68/68 10/71/71
f 10/71/71 33/68/68 32/72/72
f 10/71/71 32/72/72 11/67/67
f 11/67/67 32/72/72 31/65/65
f 1/73/73 22/74/74 39/75/75
f 39/75/75 22/74/74 37/76/76
f 39/75/75 37/76/76 38/77/77
f 13/78/78 10/79/79 42/80/80
f 42/80/80 10/79/79 40/81/81
f 42/80/80 40/81/81 41/82/82
f 21/83/83 47/84/84 22/85/85
f 22/85/85 47/84/84 48/86/86
f 22/85/85 48/86/86 37/87/87
f 37/87/87 48/86/86 49/88/88
f 37/87/87 49/88/88 38/89/89
f 38/89/89 49/88/88 39/90/90
f 39/90/90 49/88/88 50/91/91
f 39/90/90 50/91/91 1/92/92
f 1/92/92 50/91/91 51/93/93
f 1/92/92 51/93/93 2/94/94
f 2/94/94 51/93/93 52/95/95
f 2/94/94 52/95/95 3/96/96
f 3/96/96 52/95/95 53/97/97
f 3/96/96 53/97/97 4/98/98
f 4/98/98 53/97/97 54/99/99
f 4/98/98 54/99/99 5/100/100
f 5/100/100 54/99/99 55/101/101
f 5/100/100 55/101/101 6/102/102
f 6/102/102 55/101/101 56/103/103
f 6/102/102 56/103/103 7/104/104
f 7/104/104 56/103/103 57/105/105
f 7/104/104 57/105/105 8/106/106
f 8/106/106 57/105/105 58/107/107
f 8/106/106 58/107/107 9/108/108
f 9/108/108 58/107/107 59/109/109
f 9/108/108 59/109/109 10/110/110
f 10/110/110 59/109/109 60/111/111
f 10/110/110 60/111/111 40/112/112
f 40/112/112 60/111/111 61/113/113
f 40/112/112 61/113/113 41/114/114
f 41/114/114 61/113/113 42/115/115
f 42/115/115 61/113/113 62/116/116
f 42/115/115 62/116/116 13/117/117
f 13/117/117 62/116/116 63/118/118
f 13/117/117 63/118/118 14/119/119
f 14/119/119 63/118/118 64/120/120
f 14/119/119 64/120/120 15/121/121
f 15/121/121 64/120/120 65/122/122
f 15/121/121 65/122/122 16/123/123
f 16/123/123 65/122/122 66/124/124
f 16/123/123 66/124/124 17/125/125
f 17/125/125 66/124/124 43/126/126
f 17/125/125 43/126/126 18/127/127
f 18/128/127 43/129/126 44/130/128
f 18/128/127 44/130/128 19/131/129
f 19/131/129 44/130/128 45/132/130
f 19/131/129 45/132/130 20/133/131
f 20/133/131 45/132/130 46/134/132
f 20/133/131 46/134/132 21/83/83
f 21/83/83 46/134/132 47/84/84
f 66/135/133 56/136/134 43/137/135
f 43/137/135 56/136/134 55/138/136
f 43/137/135 55/138/136 44/139/137
f 44/139/137 55/138/136 54/140/138
f 44/139/137 54/140/138 45/141/139
f 45/141/139 54/140/138 53/142/140
f 45/141/139 53/142/140 46/143/141
f 46/143/141 53/142/140 52/144/142
f 46/143/141 52/144/142 47/145/143
f 47/145/143 52/144/142 51/146/144
f 47/145/143 51/146/144 48/147/145
f 48/147/145 51/146/144 50/148/146
f 48/147/145 50/148/146 49/149/147
f 56/136/134 66/135/133 57/150/148
f 57/150/148 66/135/133 65/151/149
f 57/150/148 65/151/149 58/152/150
f 58/152/150 65/151/149 64/153/151
f 58/152/150 64/153/151 59/154/152
f 59/154/152 64/153/151 63/155/153
f 59/154/152 63/155/153 60/156/154
f 60/156/154 63/155/153 62/157/155
f 60/156/154 62/157/155 61/158/156
# 66 vertices
# 158 texture params
# 156 normals
# 132 facets

# 1 groups
