# WaveFront *.obj file (generated by Autodesk ATF)

mtllib c18dd8b3-be39-4118-bfd1-e0c7d2597222.mtl

g Body1

v -45.000000 50.000000 -5.000000
v -46.294095 49.829629 -5.000000
v -47.500000 49.330127 -5.000000
v -48.535534 48.535534 -5.000000
v -49.330127 47.500000 -5.000000
v -49.829629 46.294095 -5.000000
v -50.000000 45.000000 -5.000000
v -50.000000 45.000000 0.000000
v -49.829629 46.294095 0.000000
v -49.330127 47.500000 0.000000
v -48.535534 48.535534 0.000000
v -47.500000 49.330127 0.000000
v -46.294095 49.829629 0.000000
v -45.000000 50.000000 0.000000
v 0.000000 50.000000 -5.000000
v 0.000000 0.000000 -5.000000
v -50.000000 0.000000 -5.000000
v 0.000000 50.000000 0.000000
v -50.000000 0.000000 0.000000
v 0.000000 0.000000 0.000000
vt -0.000000 0.392699 0.000000
vt -0.500000 0.392699 0.000000
vt -0.000000 0.261799 0.000000
vt -0.500000 0.261799 0.000000
vt -0.000000 0.130900 0.000000
vt -0.500000 0.130900 0.000000
vt -0.000000 0.000000 0.000000
vt -0.500000 0.000000 0.000000
vt -0.000000 -0.130900 0.000000
vt -0.500000 -0.130900 0.000000
vt -0.000000 -0.261799 0.000000
vt -0.500000 -0.261799 0.000000
vt -0.000000 -0.392699 0.000000
vt -0.500000 -0.392699 0.000000
vt 2.482963 2.129410 0.000000
vt 2.000000 2.500000 0.000000
vt 2.500000 2.000000 0.000000
vt -2.500000 -2.500000 0.000000
vt 2.500000 -2.500000 0.000000
vt 2.433013 2.250000 0.000000
vt 2.353553 2.353553 0.000000
vt 2.250000 2.433013 0.000000
vt 2.129410 2.482963 0.000000
vt -2.500000 2.500000 0.000000
vt 0.500000 0.000000 0.000000
vt 5.000000 0.000000 0.000000
vt 0.500000 0.500000 0.000000
vt 5.000000 0.500000 0.000000
vt 4.500000 0.500000 0.000000
vt 0.000000 0.500000 0.000000
vt 4.500000 0.000000 0.000000
vt 0.000000 0.000000 0.000000
vt 0.000000 0.000000 0.000000
vt 5.000000 0.000000 0.000000
vt 0.000000 0.500000 0.000000
vt 5.000000 0.500000 0.000000
vt 0.000000 0.000000 0.000000
vt 5.000000 0.000000 0.000000
vt 0.000000 0.500000 0.000000
vt 5.000000 0.500000 0.000000
vt -2.129410 2.482963 0.000000
vt -2.250000 2.433013 0.000000
vt -2.000000 2.500000 0.000000
vt -2.353553 2.353553 0.000000
vt -2.433013 2.250000 0.000000
vt -2.482963 2.129410 0.000000
vt -2.500000 2.000000 0.000000
vt 2.500000 -2.500000 0.000000
vt -2.500000 -2.500000 0.000000
vt 2.500000 2.500000 0.000000
vn -0.000000 0.100000 -0.000000
vn -0.000000 0.100000 -0.000000
vn -0.025882 0.096593 -0.000000
vn -0.025882 0.096593 -0.000000
vn -0.050000 0.086603 -0.000000
vn -0.050000 0.086603 -0.000000
vn -0.070711 0.070711 -0.000000
vn -0.070711 0.070711 -0.000000
vn -0.086603 0.050000 -0.000000
vn -0.086603 0.050000 -0.000000
vn -0.096593 0.025882 -0.000000
vn -0.096593 0.025882 -0.000000
vn -0.100000 0.000000 -0.000000
vn -0.100000 0.000000 -0.000000
vn 0.000000 0.000000 -0.100000
vn 0.000000 0.000000 -0.100000
vn 0.000000 0.000000 -0.100000
vn 0.000000 0.000000 -0.100000
vn 0.000000 0.000000 -0.100000
vn 0.000000 0.000000 -0.100000
vn 0.000000 0.000000 -0.100000
vn 0.000000 0.000000 -0.100000
vn 0.000000 0.000000 -0.100000
vn 0.000000 0.000000 -0.100000
vn 0.000000 0.100000 0.000000
vn 0.000000 0.100000 0.000000
vn -0.100000 0.000000 0.000000
vn -0.100000 0.000000 0.000000
vn 0.000000 -0.100000 0.000000
vn 0.000000 -0.100000 0.000000
vn 0.000000 -0.100000 0.000000
vn 0.000000 -0.100000 0.000000
vn 0.100000 0.000000 0.000000
vn 0.100000 0.000000 0.000000
vn 0.100000 0.000000 0.000000
vn 0.100000 0.000000 0.000000
vn 0.000000 -0.000000 0.100000
vn 0.000000 -0.000000 0.100000
vn 0.000000 -0.000000 0.100000
vn 0.000000 -0.000000 0.100000
vn 0.000000 -0.000000 0.100000
vn 0.000000 -0.000000 0.100000
vn 0.000000 -0.000000 0.100000
vn 0.000000 -0.000000 0.100000
vn 0.000000 -0.000000 0.100000
vn 0.000000 -0.000000 0.100000
usemtl Powder_Coat_-_Rough_(Red)
f 14/1/1 1/2/2 13/3/3
f 13/3/3 1/2/2 2/4/4
f 13/3/3 2/4/4 12/5/5
f 12/5/5 2/4/4 3/6/6
f 12/5/5 3/6/6 11/7/7
f 11/7/7 3/6/6 4/8/8
f 11/7/7 4/8/8 10/9/9
f 10/9/9 4/8/8 5/10/10
f 10/9/9 5/10/10 9/11/11
f 9/11/11 5/10/10 6/12/12
f 9/11/11 6/12/12 8/13/13
f 8/13/13 6/12/12 7/14/14
f 6/15/15 1/16/16 7/17/17
f 7/17/17 1/16/16 16/18/18
f 7/17/17 16/18/18 17/19/19
f 6/15/15 5/20/20 1/16/16
f 1/16/16 5/20/20 4/21/21
f 1/16/16 4/21/21 3/22/22
f 3/22/22 2/23/23 1/16/16
f 1/16/16 15/24/24 16/18/18
f 14/25/1 18/26/25 1/27/2
f 1/27/2 18/26/25 15/28/26
f 7/29/14 17/30/27 8/31/13
f 8/31/13 17/30/27 19/32/28
f 20/33/29 19/34/30 16/35/31
f 16/35/31 19/34/30 17/36/32
f 18/37/33 20/38/34 15/39/35
f 15/39/35 20/38/34 16/40/36
f 13/41/37 12/42/38 14/43/39
f 14/43/39 12/42/38 11/44/40
f 14/43/39 11/44/40 10/45/41
f 10/45/41 9/46/42 14/43/39
f 14/43/39 9/46/42 8/47/43
f 14/43/39 8/47/43 20/48/44
f 20/48/44 8/47/43 19/49/45
f 20/48/44 18/50/46 14/43/39
g Body2

v 50.000000 45.000000 -5.000000
v 49.829629 46.294095 -5.000000
v 49.330127 47.500000 -5.000000
v 48.535534 48.535534 -5.000000
v 47.500000 49.330127 -5.000000
v 46.294095 49.829629 -5.000000
v 45.000000 50.000000 -5.000000
v 45.000000 50.000000 0.000000
v 46.294095 49.829629 0.000000
v 47.500000 49.330127 0.000000
v 48.535534 48.535534 0.000000
v 49.330127 47.500000 0.000000
v 49.829629 46.294095 0.000000
v 50.000000 45.000000 0.000000
v 0.000000 50.000000 0.000000
v 0.000000 0.000000 0.000000
v 50.000000 0.000000 0.000000
v 0.000000 50.000000 -5.000000
v 0.000000 0.000000 -5.000000
v 50.000000 0.000000 -5.000000
vt -0.000000 0.392699 0.000000
vt -0.500000 0.392699 0.000000
vt -0.000000 0.261799 0.000000
vt -0.500000 0.261799 0.000000
vt -0.000000 0.130900 0.000000
vt -0.500000 0.130900 0.000000
vt -0.000000 0.000000 0.000000
vt -0.500000 0.000000 0.000000
vt -0.000000 -0.130900 0.000000
vt -0.500000 -0.130900 0.000000
vt -0.000000 -0.261799 0.000000
vt -0.500000 -0.261799 0.000000
vt -0.000000 -0.392699 0.000000
vt -0.500000 -0.392699 0.000000
vt 2.482963 2.129410 0.000000
vt 2.000000 2.500000 0.000000
vt 2.500000 2.000000 0.000000
vt -2.500000 -2.500000 0.000000
vt 2.500000 -2.500000 0.000000
vt 2.433013 2.250000 0.000000
vt 2.353553 2.353553 0.000000
vt 2.250000 2.433013 0.000000
vt 2.129410 2.482963 0.000000
vt -2.500000 2.500000 0.000000
vt 4.500000 0.500000 0.000000
vt 0.000000 0.500000 0.000000
vt 4.500000 0.000000 0.000000
vt 0.000000 0.000000 0.000000
vt -0.000000 0.000000 0.000000
vt 5.000000 0.000000 0.000000
vt 0.000000 0.500000 0.000000
vt 5.000000 0.500000 0.000000
vt 0.500000 0.000000 0.000000
vt 5.000000 0.000000 0.000000
vt 0.500000 0.500000 0.000000
vt 5.000000 0.500000 0.000000
vt 0.000000 0.000000 0.000000
vt 5.000000 0.000000 0.000000
vt 0.000000 0.500000 0.000000
vt 5.000000 0.500000 0.000000
vt -2.129410 2.482963 0.000000
vt -2.250000 2.433013 0.000000
vt -2.000000 2.500000 0.000000
vt -2.353553 2.353553 0.000000
vt -2.433013 2.250000 0.000000
vt -2.482963 2.129410 0.000000
vt -2.500000 2.000000 0.000000
vt 2.500000 -2.500000 0.000000
vt -2.500000 -2.500000 0.000000
vt 2.500000 2.500000 0.000000
vn 0.100000 0.000000 0.000000
vn 0.100000 0.000000 0.000000
vn 0.096593 0.025882 0.000000
vn 0.096593 0.025882 0.000000
vn 0.086603 0.050000 0.000000
vn 0.086603 0.050000 0.000000
vn 0.070711 0.070711 0.000000
vn 0.070711 0.070711 0.000000
vn 0.050000 0.086603 0.000000
vn 0.050000 0.086603 0.000000
vn 0.025882 0.096593 0.000000
vn 0.025882 0.096593 0.000000
vn -0.000000 0.100000 -0.000000
vn -0.000000 0.100000 -0.000000
vn 0.000000 0.000000 0.100000
vn 0.000000 0.000000 0.100000
vn 0.000000 0.000000 0.100000
vn 0.000000 0.000000 0.100000
vn 0.000000 0.000000 0.100000
vn 0.000000 0.000000 0.100000
vn 0.000000 0.000000 0.100000
vn 0.000000 0.000000 0.100000
vn 0.000000 0.000000 0.100000
vn 0.000000 0.000000 0.100000
vn 0.000000 0.100000 0.000000
vn 0.000000 0.100000 0.000000
vn 0.000000 -0.100000 0.000000
vn 0.000000 -0.100000 0.000000
vn 0.000000 -0.100000 0.000000
vn 0.000000 -0.100000 0.000000
vn 0.100000 -0.000000 0.000000
vn 0.100000 -0.000000 0.000000
vn -0.100000 0.000000 0.000000
vn -0.100000 0.000000 0.000000
vn -0.100000 0.000000 0.000000
vn -0.100000 0.000000 0.000000
vn 0.000000 0.000000 -0.100000
vn 0.000000 0.000000 -0.100000
vn 0.000000 0.000000 -0.100000
vn 0.000000 0.000000 -0.100000
vn 0.000000 0.000000 -0.100000
vn 0.000000 0.000000 -0.100000
vn 0.000000 0.000000 -0.100000
vn 0.000000 0.000000 -0.100000
vn 0.000000 0.000000 -0.100000
vn 0.000000 0.000000 -0.100000
usemtl Powder_Coat_-_Rough_(Blue)
f 34/51/47 21/52/48 33/53/49
f 33/53/49 21/52/48 22/54/50
f 33/53/49 22/54/50 32/55/51
f 32/55/51 22/54/50 23/56/52
f 32/55/51 23/56/52 31/57/53
f 31/57/53 23/56/52 24/58/54
f 31/57/53 24/58/54 30/59/55
f 30/59/55 24/58/54 25/60/56
f 30/59/55 25/60/56 29/61/57
f 29/61/57 25/60/56 26/62/58
f 29/61/57 26/62/58 28/63/59
f 28/63/59 26/62/58 27/64/60
f 33/65/61 28/66/62 34/67/63
f 34/67/63 28/66/62 36/68/64
f 34/67/63 36/68/64 37/69/65
f 33/65/61 32/70/66 28/66/62
f 28/66/62 32/70/66 31/71/67
f 28/66/62 31/71/67 30/72/68
f 30/72/68 29/73/69 28/66/62
f 28/66/62 35/74/70 36/68/64
f 27/75/60 38/76/71 28/77/59
f 28/77/59 38/76/71 35/78/72
f 37/79/73 36/80/74 40/81/75
f 40/81/75 36/80/74 39/82/76
f 34/83/47 37/84/77 21/85/48
f 21/85/48 37/84/77 40/86/78
f 36/87/79 35/88/80 39/89/81
f 39/89/81 35/88/80 38/90/82
f 26/91/83 25/92/84 27/93/85
f 27/93/85 25/92/84 24/94/86
f 27/93/85 24/94/86 23/95/87
f 23/95/87 22/96/88 27/93/85
f 27/93/85 22/96/88 21/97/89
f 27/93/85 21/97/89 39/98/90
f 39/98/90 21/97/89 40/99/91
f 39/98/90 38/100/92 27/93/85
g Body3

v -50.000000 -45.000000 -5.000000
v -49.829629 -46.294095 -5.000000
v -49.330127 -47.500000 -5.000000
v -48.535534 -48.535534 -5.000000
v -47.500000 -49.330127 -5.000000
v -46.294095 -49.829629 -5.000000
v -45.000000 -50.000000 -5.000000
v -45.000000 -50.000000 0.000000
v -46.294095 -49.829629 0.000000
v -47.500000 -49.330127 0.000000
v -48.535534 -48.535534 0.000000
v -49.330127 -47.500000 0.000000
v -49.829629 -46.294095 0.000000
v -50.000000 -45.000000 0.000000
v 0.000000 -50.000000 0.000000
v 0.000000 0.000000 0.000000
v -50.000000 0.000000 0.000000
v 0.000000 -50.000000 -5.000000
v 0.000000 0.000000 -5.000000
v -50.000000 0.000000 -5.000000
vt -0.000000 0.392699 0.000000
vt -0.500000 0.392699 0.000000
vt 0.000000 0.261799 0.000000
vt -0.500000 0.261799 0.000000
vt 0.000000 0.130900 0.000000
vt -0.500000 0.130900 0.000000
vt -0.000000 0.000000 0.000000
vt -0.500000 0.000000 0.000000
vt 0.000000 -0.130900 0.000000
vt -0.500000 -0.130900 0.000000
vt 0.000000 -0.261799 0.000000
vt -0.500000 -0.261799 0.000000
vt -0.000000 -0.392699 0.000000
vt -0.500000 -0.392699 0.000000
vt -2.482963 -2.129410 0.000000
vt -2.433013 -2.250000 0.000000
vt -2.500000 -2.000000 0.000000
vt -2.353553 -2.353553 0.000000
vt -2.250000 -2.433013 0.000000
vt -2.129410 -2.482963 0.000000
vt -2.000000 -2.500000 0.000000
vt 2.500000 2.500000 0.000000
vt 2.500000 -2.500000 0.000000
vt -2.500000 2.500000 0.000000
vt 4.500000 0.500000 0.000000
vt -0.000000 0.500000 0.000000
vt 4.500000 0.000000 0.000000
vt -0.000000 0.000000 0.000000
vt 0.000000 0.000000 0.000000
vt 5.000000 0.000000 0.000000
vt 0.000000 0.500000 0.000000
vt 5.000000 0.500000 0.000000
vt 0.500000 0.000000 0.000000
vt 5.000000 0.000000 0.000000
vt 0.500000 0.500000 0.000000
vt 5.000000 0.500000 0.000000
vt 0.000000 0.000000 0.000000
vt 5.000000 0.000000 0.000000
vt 0.000000 0.500000 0.000000
vt 5.000000 0.500000 0.000000
vt 2.129410 -2.482963 0.000000
vt 2.500000 -2.000000 0.000000
vt 2.000000 -2.500000 0.000000
vt -2.500000 2.500000 0.000000
vt -2.500000 -2.500000 0.000000
vt 2.250000 -2.433013 0.000000
vt 2.353553 -2.353553 0.000000
vt 2.433013 -2.250000 0.000000
vt 2.482963 -2.129410 0.000000
vt 2.500000 2.500000 0.000000
vn -0.100000 0.000000 -0.000000
vn -0.100000 0.000000 -0.000000
vn -0.096593 -0.025882 0.000000
vn -0.096593 -0.025882 0.000000
vn -0.086603 -0.050000 0.000000
vn -0.086603 -0.050000 0.000000
vn -0.070711 -0.070711 0.000000
vn -0.070711 -0.070711 0.000000
vn -0.050000 -0.086603 0.000000
vn -0.050000 -0.086603 0.000000
vn -0.025882 -0.096593 0.000000
vn -0.025882 -0.096593 0.000000
vn 0.000000 -0.100000 0.000000
vn 0.000000 -0.100000 0.000000
vn 0.000000 0.000000 0.100000
vn 0.000000 0.000000 0.100000
vn 0.000000 0.000000 0.100000
vn 0.000000 0.000000 0.100000
vn 0.000000 0.000000 0.100000
vn 0.000000 0.000000 0.100000
vn 0.000000 0.000000 0.100000
vn 0.000000 0.000000 0.100000
vn 0.000000 0.000000 0.100000
vn 0.000000 0.000000 0.100000
vn 0.000000 -0.100000 0.000000
vn 0.000000 -0.100000 0.000000
vn 0.000000 0.100000 0.000000
vn 0.000000 0.100000 0.000000
vn 0.000000 0.100000 0.000000
vn 0.000000 0.100000 0.000000
vn -0.100000 0.000000 0.000000
vn -0.100000 0.000000 0.000000
vn 0.100000 0.000000 0.000000
vn 0.100000 0.000000 0.000000
vn 0.100000 0.000000 0.000000
vn 0.100000 0.000000 0.000000
vn 0.000000 0.000000 -0.100000
vn 0.000000 0.000000 -0.100000
vn 0.000000 0.000000 -0.100000
vn 0.000000 0.000000 -0.100000
vn 0.000000 0.000000 -0.100000
vn 0.000000 0.000000 -0.100000
vn 0.000000 0.000000 -0.100000
vn 0.000000 0.000000 -0.100000
vn 0.000000 0.000000 -0.100000
vn 0.000000 0.000000 -0.100000
usemtl Powder_Coat_-_Rough_(Yellow)
f 54/101/93 41/102/94 53/103/95
f 53/103/95 41/102/94 42/104/96
f 53/103/95 42/104/96 52/105/97
f 52/105/97 42/104/96 43/106/98
f 52/105/97 43/106/98 51/107/99
f 51/107/99 43/106/98 44/108/100
f 51/107/99 44/108/100 50/109/101
f 50/109/101 44/108/100 45/110/102
f 50/109/101 45/110/102 49/111/103
f 49/111/103 45/110/102 46/112/104
f 49/111/103 46/112/104 48/113/105
f 48/113/105 46/112/104 47/114/106
f 53/115/107 52/116/108 54/117/109
f 54/117/109 52/116/108 51/118/110
f 54/117/109 51/118/110 50/119/111
f 50/119/111 49/120/112 54/117/109
f 54/117/109 49/120/112 48/121/113
f 54/117/109 48/121/113 56/122/114
f 56/122/114 48/121/113 55/123/115
f 56/122/114 57/124/116 54/117/109
f 47/125/106 58/126/117 48/127/105
f 48/127/105 58/126/117 55/128/118
f 57/129/119 56/130/120 60/131/121
f 60/131/121 56/130/120 59/132/122
f 54/133/93 57/134/123 41/135/94
f 41/135/94 57/134/123 60/136/124
f 56/137/125 55/138/126 59/139/127
f 59/139/127 55/138/126 58/140/128
f 46/141/129 41/142/130 47/143/131
f 47/143/131 41/142/130 59/144/132
f 47/143/131 59/144/132 58/145/133
f 46/141/129 45/146/134 41/142/130
f 41/142/130 45/146/134 44/147/135
f 41/142/130 44/147/135 43/148/136
f 43/148/136 42/149/137 41/142/130
f 41/142/130 60/150/138 59/144/132
g Body4

v 45.000000 -50.000000 -5.000000
v 46.294095 -49.829629 -5.000000
v 47.500000 -49.330127 -5.000000
v 48.535534 -48.535534 -5.000000
v 49.330127 -47.500000 -5.000000
v 49.829629 -46.294095 -5.000000
v 50.000000 -45.000000 -5.000000
v 50.000000 -45.000000 0.000000
v 49.829629 -46.294095 0.000000
v 49.330127 -47.500000 0.000000
v 48.535534 -48.535534 0.000000
v 47.500000 -49.330127 0.000000
v 46.294095 -49.829629 0.000000
v 45.000000 -50.000000 0.000000
v 0.000000 -50.000000 -5.000000
v 0.000000 0.000000 -5.000000
v 50.000000 0.000000 -5.000000
v 0.000000 -50.000000 0.000000
v 50.000000 0.000000 0.000000
v 0.000000 0.000000 0.000000
vt -0.000000 0.392699 0.000000
vt -0.500000 0.392699 0.000000
vt -0.000000 0.261799 0.000000
vt -0.500000 0.261799 0.000000
vt -0.000000 0.130900 0.000000
vt -0.500000 0.130900 0.000000
vt -0.000000 0.000000 0.000000
vt -0.500000 0.000000 0.000000
vt -0.000000 -0.130900 0.000000
vt -0.500000 -0.130900 0.000000
vt -0.000000 -0.261799 0.000000
vt -0.500000 -0.261799 0.000000
vt -0.000000 -0.392699 0.000000
vt -0.500000 -0.392699 0.000000
vt -2.482963 -2.129410 0.000000
vt -2.433013 -2.250000 0.000000
vt -2.500000 -2.000000 0.000000
vt -2.353553 -2.353553 0.000000
vt -2.250000 -2.433013 0.000000
vt -2.129410 -2.482963 0.000000
vt -2.000000 -2.500000 0.000000
vt 2.500000 2.500000 0.000000
vt 2.500000 -2.500000 0.000000
vt -2.500000 2.500000 0.000000
vt 0.500000 0.000000 0.000000
vt 5.000000 0.000000 0.000000
vt 0.500000 0.500000 0.000000
vt 5.000000 0.500000 0.000000
vt 4.500000 0.500000 0.000000
vt 0.000000 0.500000 0.000000
vt 4.500000 0.000000 0.000000
vt 0.000000 0.000000 0.000000
vt 0.000000 0.000000 0.000000
vt 5.000000 0.000000 0.000000
vt 0.000000 0.500000 0.000000
vt 5.000000 0.500000 0.000000
vt 0.000000 0.000000 0.000000
vt 5.000000 0.000000 0.000000
vt 0.000000 0.500000 0.000000
vt 5.000000 0.500000 0.000000
vt 2.129410 -2.482963 0.000000
vt 2.500000 -2.000000 0.000000
vt 2.000000 -2.500000 0.000000
vt -2.500000 2.500000 0.000000
vt -2.500000 -2.500000 0.000000
vt 2.250000 -2.433013 0.000000
vt 2.353553 -2.353553 0.000000
vt 2.433013 -2.250000 0.000000
vt 2.482963 -2.129410 0.000000
vt 2.500000 2.500000 0.000000
vn 0.000000 -0.100000 0.000000
vn 0.000000 -0.100000 0.000000
vn 0.025882 -0.096593 0.000000
vn 0.025882 -0.096593 0.000000
vn 0.050000 -0.086603 0.000000
vn 0.050000 -0.086603 0.000000
vn 0.070711 -0.070711 0.000000
vn 0.070711 -0.070711 0.000000
vn 0.086603 -0.050000 0.000000
vn 0.086603 -0.050000 0.000000
vn 0.096593 -0.025882 0.000000
vn 0.096593 -0.025882 0.000000
vn 0.100000 0.000000 0.000000
vn 0.100000 0.000000 0.000000
vn 0.000000 0.000000 -0.100000
vn 0.000000 0.000000 -0.100000
vn 0.000000 0.000000 -0.100000
vn 0.000000 0.000000 -0.100000
vn 0.000000 0.000000 -0.100000
vn 0.000000 0.000000 -0.100000
vn 0.000000 0.000000 -0.100000
vn 0.000000 0.000000 -0.100000
vn 0.000000 0.000000 -0.100000
vn 0.000000 0.000000 -0.100000
vn 0.000000 -0.100000 0.000000
vn 0.000000 -0.100000 0.000000
vn 0.100000 0.000000 0.000000
vn 0.100000 0.000000 0.000000
vn 0.000000 0.100000 0.000000
vn 0.000000 0.100000 0.000000
vn 0.000000 0.100000 0.000000
vn 0.000000 0.100000 0.000000
vn -0.100000 -0.000000 0.000000
vn -0.100000 -0.000000 0.000000
vn -0.100000 -0.000000 0.000000
vn -0.100000 -0.000000 0.000000
vn 0.000000 -0.000000 0.100000
vn 0.000000 -0.000000 0.100000
vn 0.000000 -0.000000 0.100000
vn 0.000000 -0.000000 0.100000
vn 0.000000 -0.000000 0.100000
vn 0.000000 -0.000000 0.100000
vn 0.000000 -0.000000 0.100000
vn 0.000000 -0.000000 0.100000
vn 0.000000 -0.000000 0.100000
vn 0.000000 -0.000000 0.100000
usemtl Powder_Coat_-_Rough_(Grey)
f 74/151/139 61/152/140 73/153/141
f 73/153/141 61/152/140 62/154/142
f 73/153/141 62/154/142 72/155/143
f 72/155/143 62/154/142 63/156/144
f 72/155/143 63/156/144 71/157/145
f 71/157/145 63/156/144 64/158/146
f 71/157/145 64/158/146 70/159/147
f 70/159/147 64/158/146 65/160/148
f 70/159/147 65/160/148 69/161/149
f 69/161/149 65/160/148 66/162/150
f 69/161/149 66/162/150 68/163/151
f 68/163/151 66/162/150 67/164/152
f 66/165/153 65/166/154 67/167/155
f 67/167/155 65/166/154 64/168/156
f 67/167/155 64/168/156 63/169/157
f 63/169/157 62/170/158 67/167/155
f 67/167/155 62/170/158 61/171/159
f 67/167/155 61/171/159 76/172/160
f 76/172/160 61/171/159 75/173/161
f 76/172/160 77/174/162 67/167/155
f 74/175/139 78/176/163 61/177/140
f 61/177/140 78/176/163 75/178/164
f 67/179/152 77/180/165 68/181/151
f 68/181/151 77/180/165 79/182/166
f 80/183/167 79/184/168 76/185/169
f 76/185/169 79/184/168 77/186/170
f 78/187/171 80/188/172 75/189/173
f 75/189/173 80/188/172 76/190/174
f 73/191/175 68/192/176 74/193/177
f 74/193/177 68/192/176 80/194/178
f 74/193/177 80/194/178 78/195/179
f 73/191/175 72/196/180 68/192/176
f 68/192/176 72/196/180 71/197/181
f 68/192/176 71/197/181 70/198/182
f 70/198/182 69/199/183 68/192/176
f 68/192/176 79/200/184 80/194/178
# 80 vertices
# 200 texture params
# 184 normals
# 144 facets

# 4 groups
